<svg xmlns="http://www.w3.org/2000/svg" viewBox="0 0 800 200" preserveAspectRatio="xMidYMid meet" style="max-width:100%;background:#020617;border:1px solid #1e293b;border-radius:8px;display:block;margin:0 auto"><defs><pattern id="g" width="40" height="40" patternUnits="userSpaceOnUse"><path d="M 40 0 L 0 0 0 40" fill="none" stroke="#1e293b" stroke-width="0.5"/></pattern><marker id="a" viewBox="0 0 10 10" refX="9" refY="5" markerWidth="6" markerHeight="6" orient="auto-start-reverse"><path d="M 0 0 L 10 5 L 0 10 z" fill="#475569"/></marker></defs><rect width="800" height="200" fill="url(#g)"/><rect x="40" y="30" width="130" height="50" rx="6" fill="#0f172a"/><rect x="40" y="30" width="130" height="50" rx="6" fill="rgba(120, 53, 15, 0.3)" stroke="#fbbf24" stroke-width="1.5"/><text x="105.0" y="53.0" fill="#e2e8f0" font-family="ui-monospace,SF Mono,monospace" font-size="12" font-weight="600" text-anchor="middle">Schedule</text><text x="105.0" y="67.0" fill="#94a3b8" font-family="ui-monospace,SF Mono,monospace" font-size="9" text-anchor="middle">APScheduler</text><rect x="220" y="30" width="160" height="50" rx="6" fill="#0f172a"/><rect x="220" y="30" width="160" height="50" rx="6" fill="rgba(6, 78, 59, 0.4)" stroke="#34d399" stroke-width="1.5"/><text x="300.0" y="53.0" fill="#e2e8f0" font-family="ui-monospace,SF Mono,monospace" font-size="12" font-weight="600" text-anchor="middle">Scraper</text><text x="300.0" y="67.0" fill="#94a3b8" font-family="ui-monospace,SF Mono,monospace" font-size="9" text-anchor="middle">Playwright / httpx</text><rect x="430" y="30" width="160" height="50" rx="6" fill="#0f172a"/><rect x="430" y="30" width="160" height="50" rx="6" fill="rgba(6, 78, 59, 0.4)" stroke="#34d399" stroke-width="1.5"/><text x="510.0" y="53.0" fill="#e2e8f0" font-family="ui-monospace,SF Mono,monospace" font-size="12" font-weight="600" text-anchor="middle">Parser</text><text x="510.0" y="67.0" fill="#94a3b8" font-family="ui-monospace,SF Mono,monospace" font-size="9" text-anchor="middle">Pydantic schemas</text><rect x="640" y="30" width="130" height="50" rx="6" fill="#0f172a"/><rect x="640" y="30" width="130" height="50" rx="6" fill="rgba(76, 29, 149, 0.4)" stroke="#a78bfa" stroke-width="1.5"/><text x="705.0" y="53.0" fill="#e2e8f0" font-family="ui-monospace,SF Mono,monospace" font-size="12" font-weight="600" text-anchor="middle">PostgreSQL</text><text x="705.0" y="67.0" fill="#94a3b8" font-family="ui-monospace,SF Mono,monospace" font-size="9" text-anchor="middle">idempotent UPSERT</text><line x1="170" y1="55" x2="220" y2="55" stroke="#475569" stroke-width="1.5" marker-end="url(#a)"/><line x1="380" y1="55" x2="430" y2="55" stroke="#475569" stroke-width="1.5" marker-end="url(#a)"/><line x1="590" y1="55" x2="640" y2="55" stroke="#475569" stroke-width="1.5" marker-end="url(#a)"/><rect x="220" y="130" width="100" height="50" rx="6" fill="#0f172a"/><rect x="220" y="130" width="100" height="50" rx="6" fill="rgba(30, 41, 59, 0.5)" stroke="#94a3b8" stroke-width="1.5"/><text x="270.0" y="153.0" fill="#e2e8f0" font-family="ui-monospace,SF Mono,monospace" font-size="12" font-weight="600" text-anchor="middle">CSV</text><text x="270.0" y="167.0" fill="#94a3b8" font-family="ui-monospace,SF Mono,monospace" font-size="9" text-anchor="middle">fastapi route</text><rect x="340" y="130" width="130" height="50" rx="6" fill="#0f172a"/><rect x="340" y="130" width="130" height="50" rx="6" fill="rgba(30, 41, 59, 0.5)" stroke="#94a3b8" stroke-width="1.5"/><text x="405.0" y="153.0" fill="#e2e8f0" font-family="ui-monospace,SF Mono,monospace" font-size="12" font-weight="600" text-anchor="middle">Google Sheets</text><text x="405.0" y="167.0" fill="#94a3b8" font-family="ui-monospace,SF Mono,monospace" font-size="9" text-anchor="middle">gspread</text><rect x="490" y="130" width="130" height="50" rx="6" fill="#0f172a"/><rect x="490" y="130" width="130" height="50" rx="6" fill="rgba(251, 146, 60, 0.3)" stroke="#fb923c" stroke-width="1.5"/><text x="555.0" y="153.0" fill="#e2e8f0" font-family="ui-monospace,SF Mono,monospace" font-size="12" font-weight="600" text-anchor="middle">Telegram</text><text x="555.0" y="167.0" fill="#94a3b8" font-family="ui-monospace,SF Mono,monospace" font-size="9" text-anchor="middle">python-telegram-bot</text><line x1="550" y1="80" x2="270" y2="130" stroke="#475569" stroke-width="1.5" marker-end="url(#a)"/><line x1="550" y1="80" x2="405" y2="130" stroke="#475569" stroke-width="1.5" marker-end="url(#a)"/><line x1="550" y1="80" x2="555" y2="130" stroke="#475569" stroke-width="1.5" marker-end="url(#a)"/><rect x="40" y="130" width="150" height="50" rx="6" fill="#0f172a"/><rect x="40" y="130" width="150" height="50" rx="6" fill="rgba(136, 19, 55, 0.4)" stroke="#fb7185" stroke-width="1.5"/><text x="115.0" y="153.0" fill="#e2e8f0" font-family="ui-monospace,SF Mono,monospace" font-size="12" font-weight="600" text-anchor="middle">Dead-letter Q</text><text x="115.0" y="167.0" fill="#94a3b8" font-family="ui-monospace,SF Mono,monospace" font-size="9" text-anchor="middle">failed records</text><rect x="660" y="130" width="120" height="50" rx="6" fill="#0f172a"/><rect x="660" y="130" width="120" height="50" rx="6" fill="rgba(251, 146, 60, 0.3)" stroke="#fb923c" stroke-width="1.5"/><text x="720.0" y="153.0" fill="#e2e8f0" font-family="ui-monospace,SF Mono,monospace" font-size="12" font-weight="600" text-anchor="middle">Alerts</text><text x="720.0" y="167.0" fill="#94a3b8" font-family="ui-monospace,SF Mono,monospace" font-size="9" text-anchor="middle">Telegram ping</text><line x1="380" y1="80" x2="115" y2="130" stroke="#475569" stroke-width="1.5" marker-end="url(#a)"/><line x1="660" y1="155" x2="640" y2="155" stroke="#475569" stroke-width="1.5" marker-end="url(#a)"/></svg>